<svg width="100" height="100" viewBox="0 0 100 100" fill="none" xmlns="http://www.w3.org/2000/svg">
<path d="M14.6984 89.1586L6.84375 1.05627H93.1563L85.2938 89.1453L49.9477 98.9446L14.6984 89.1586Z" fill="#1572B6"/>
<path d="M50.0007 91.4547L78.5624 83.536L85.282 8.2594H50.0007V91.4547Z" fill="#33A9DC"/>
<path d="M50.0007 40.1789H64.2992L65.2867 29.1141H50.0007V18.3086H77.096L76.8367 21.2078L74.1804 50.9844H50.0007V40.1789Z" fill="white"/>
<path d="M50.0649 68.2414L50.0172 68.2555L37.9836 65.0063L37.2141 56.3883H26.3688L27.8821 73.3547L50.0156 79.4977L50.0649 79.4836V68.2414Z" fill="#EBEBEB"/>
<path d="M63.3805 50.5273L62.0789 64.9977L50.0273 68.2508V79.493L72.1789 73.3539L72.3414 71.5281L74.2211 50.5273H63.3805Z" fill="white"/>
<path d="M50.0375 18.3086V29.1141H23.9375L23.7211 26.6859L23.2289 21.2078L22.9703 18.3086H50.0375ZM50.0008 40.1805V50.9859H38.1188L37.9024 48.5578L37.4094 43.0797L37.1516 40.1805H50.0008Z" fill="#EBEBEB"/>
</svg>
