<svg width="100" height="100" viewBox="0 0 100 100" fill="none" xmlns="http://www.w3.org/2000/svg">
<path d="M14.8726 88.9656L7.05615 1.29761H92.9437L85.1187 88.9523L49.9476 98.7023L14.8726 88.9656Z" fill="#E44D26"/>
<path d="M50 91.25L78.4203 83.3703L85.107 8.46558H50V91.25Z" fill="#F16529"/>
<path d="M50.0001 40.9805H35.7719L34.7891 29.9696H50.0001V19.218H23.0383L23.2961 22.1024L25.9383 51.7329H50.0001V40.9805ZM50.0001 68.9047L49.9524 68.918L37.9782 65.6836L37.2133 57.1094H26.4188L27.925 73.9915L49.9508 80.1055L50.0001 80.0922V68.9047Z" fill="#EBEBEB"/>
<path d="M49.9624 40.9805V51.7329H63.2022L61.9546 65.6774L49.9624 68.9141V80.1008L72.0054 73.9915L72.1671 72.1751L74.6937 43.868L74.9554 40.9805H72.0585H49.9624ZM49.9624 19.218V29.9696H75.9343L76.1499 27.554L76.6405 22.1024L76.8976 19.218H49.9624Z" fill="white"/>
</svg>
