<svg width="100" height="100" viewBox="0 0 100 100" fill="none" xmlns="http://www.w3.org/2000/svg">
<g clip-path="url(#clip0_102_139)">
<path d="M20.3339 1.98251C20.1752 2.04125 15.6921 4.49955 10.376 7.43951C3.93371 11.0051 0.625605 12.8818 0.448603 13.0581C0.308222 13.2108 0.149531 13.4751 0.100703 13.6425C-0.0335745 14.0743 -0.0427297 77.3291 0.091548 77.7843C0.140376 77.9605 0.299067 78.219 0.4425 78.3629C0.7904 78.7154 39.2487 99.9971 39.7156 100.1C39.9322 100.15 40.1764 100.141 40.4175 100.076C40.9424 99.9501 79.2999 78.7154 79.6417 78.3688C79.7821 78.219 79.9408 77.9605 79.9927 77.7843C80.0598 77.5758 80.0842 74.2687 80.0842 67.305V57.1282L89.4348 51.959C98.2513 47.0806 98.7915 46.7752 99.0173 46.4403L99.2493 46.0791V35.1181C99.2493 23.1849 99.2737 23.8575 98.7823 23.4258C98.6511 23.3142 94.1589 20.7913 88.7909 17.816L79.0405 12.4178H77.9572L68.4174 17.6897C63.1653 20.5974 58.7006 23.0821 58.4839 23.2172C58.2672 23.3553 58.0078 23.6108 57.901 23.7958L57.7087 24.116L57.666 34.4426L57.6263 44.7721L49.7498 49.1395C45.4163 51.5361 41.8091 53.5215 41.7328 53.5391C41.5924 53.5773 41.5832 52.5934 41.5832 33.6114V13.6337L41.3757 13.2901C41.1163 12.873 42.2821 13.5397 30.5756 7.06357C20.7581 1.63007 20.993 1.74461 20.3339 1.98251ZM29.3579 9.89193C33.4656 12.1593 36.8256 14.0361 36.8256 14.0596C36.8256 14.0831 33.2245 16.0861 28.8238 18.5209L20.816 22.9441L12.8235 18.5209C8.432 16.0861 4.83398 14.0831 4.83398 14.0596C4.83398 14.0361 8.4259 12.033 12.8174 9.60411L20.7916 5.18975L21.3409 5.47758C21.6492 5.63911 25.2594 7.62455 29.3579 9.89193ZM86.5082 20.0687C90.8325 22.4654 94.4092 24.4449 94.4427 24.4772C94.5343 24.5565 78.6743 33.3294 78.4576 33.3206C78.241 33.3147 62.5763 24.6211 62.5824 24.5154C62.5916 24.395 78.3508 15.6691 78.5095 15.6926C78.5828 15.7102 82.1838 17.6809 86.5082 20.0687ZM11.5845 21.3346L19.2078 25.5581L19.2505 46.4697L19.2902 67.3843L19.4763 67.6662C19.574 67.816 19.7571 68.0187 19.8914 68.1127C20.0165 68.2008 24.2584 70.5269 29.3152 73.273L38.501 78.266V87.1123C38.501 91.9672 38.4674 95.9498 38.4247 95.9498C38.3911 95.9498 30.4504 91.5766 20.7825 86.2224L3.20739 76.495L3.18298 46.5901L3.16772 16.6941L3.55834 16.9026C3.78417 17.0172 7.39135 19.0114 11.5845 21.3346ZM38.501 36.055V55.3248L38.1927 55.5187C37.7747 55.7742 22.5098 64.2182 22.4579 64.2182C22.4335 64.2182 22.4152 55.5187 22.4152 44.8837L22.4243 25.5581L30.3986 21.1437C34.7839 18.7148 38.4003 16.744 38.443 16.7587C38.4735 16.7763 38.501 25.4611 38.501 36.055ZM68.9239 31.623L76.9165 36.0462V44.8132C76.9165 53.1309 76.9073 53.5773 76.7761 53.5303C76.6907 53.498 73.0743 51.5038 68.7347 49.0983L60.8337 44.731V35.9669C60.8337 31.1413 60.8582 27.1999 60.8826 27.1999C60.9161 27.1999 64.5325 29.1882 68.9239 31.623ZM96.167 35.9111C96.167 40.7102 96.1334 44.6693 96.0999 44.7075C96.0419 44.7956 80.2338 53.5626 80.1331 53.5626C80.1086 53.5626 80.0842 49.6211 80.0842 44.7956V36.0315L88.0585 31.6142C92.4499 29.1882 96.0663 27.1999 96.0999 27.1999C96.1426 27.1999 96.167 31.1178 96.167 35.9111ZM67.3676 51.8562C74.0906 55.5804 75.2502 56.2471 75.1343 56.3352C75.058 56.3822 72.5098 57.792 69.4763 59.4602C66.4429 61.1255 58.5846 65.437 52.0081 69.0437L40.0574 75.605L39.6759 75.4053C37.3932 74.2041 24.1486 66.9526 24.1486 66.8967C24.1425 66.7763 59.1919 47.3919 59.3323 47.4419C59.3994 47.4654 63.0157 49.4508 67.3676 51.8562ZM76.9012 67.7132L76.8738 76.495L59.3079 86.2224C49.6429 91.5766 41.6992 95.9498 41.6595 95.9498C41.6168 95.9498 41.5832 92.3755 41.5832 87.1123V78.266L59.1919 68.6032C68.866 63.2901 76.8158 58.9403 76.8585 58.9315C76.8921 58.9315 76.9073 62.8818 76.9012 67.7132Z" fill="#F05340"/>
</g>
<defs>
<clipPath id="clip0_102_139">
<rect width="100" height="100" fill="white"/>
</clipPath>
</defs>
</svg>
