<svg width="100" height="100" viewBox="0 0 100 100" fill="none" xmlns="http://www.w3.org/2000/svg">
<path d="M50.5 60C56.299 60 61 55.299 61 49.5C61 43.701 56.299 39 50.5 39C44.701 39 40 43.701 40 49.5C40 55.299 44.701 60 50.5 60Z" fill="#61DAFB"/>
<path d="M65.4553 57.0656C71.5668 46.6248 75.6414 35.8672 76.7829 27.1591C77.9243 18.4509 76.0392 12.5054 71.542 10.6301C67.0449 8.75493 60.3041 11.1036 52.8023 17.1596C45.3005 23.2156 37.6521 32.483 31.5393 42.9233C25.4265 53.3636 21.3501 64.1218 20.2065 72.8317C19.0629 81.5415 20.9459 87.4897 25.4413 89.3679C29.9368 91.246 36.6764 88.9003 44.1779 82.8468C51.6794 76.7932 59.3283 67.5276 65.4424 57.0878L65.4553 57.0656ZM33.5577 57.0878C39.6717 67.5276 47.3206 76.7932 54.8221 82.8468C62.3236 88.9003 69.0633 91.246 73.5587 89.3679C78.0541 87.4897 79.9371 81.5415 78.7935 72.8317C77.65 64.1218 73.5735 53.3636 67.4607 42.9233C61.3479 32.483 53.6995 23.2156 46.1977 17.1596C38.6959 11.1036 31.9551 8.75493 27.458 10.6301C22.9608 12.5054 21.0757 18.4509 22.2171 27.1591C23.3586 35.8672 27.4332 46.6248 33.5447 57.0656L33.5577 57.0878ZM49.513 65.8138C62.1096 65.8126 74.1891 63.9693 83.0945 60.6896C91.9998 57.4099 97.0017 52.9622 97 48.3249C96.9983 43.6876 91.9931 39.2404 83.0853 35.9616C74.1775 32.6827 62.0967 30.8407 49.5 30.8407C36.9033 30.8407 24.8225 32.6827 15.9147 35.9616C7.00693 39.2404 2.00172 43.6876 2 48.3249C1.99828 52.9622 7.00019 57.4099 15.9055 60.6896C24.8109 63.9693 36.8904 65.8126 49.487 65.8138H49.513Z" stroke="#61DAFB" stroke-width="4"/>
</svg>
