<svg width="100" height="100" viewBox="0 0 100 100" fill="none" xmlns="http://www.w3.org/2000/svg">
<path fill-rule="evenodd" clip-rule="evenodd" d="M0.952393 43.8719C0.952393 44.4211 1.11411 44.7836 1.20474 45.1359C1.79536 47.4273 3.06489 49.3937 4.57114 51.1875C6.71646 53.7437 9.3438 55.8016 12.0352 57.7367C14.3696 59.4148 16.7516 61.0555 19.0954 62.7211C19.4977 63.007 19.8782 63.3359 20.3149 63.6867C19.9391 63.8898 19.6266 64.0688 19.3016 64.2336C16.2086 65.8023 13.2329 67.5609 10.4899 69.6914C8.83677 70.9758 7.23833 72.3406 6.10942 74.1242C4.29302 76.993 3.65005 80.0492 5.00396 83.3125C5.39927 84.2656 6.00239 85.0891 6.85317 85.6977C7.12896 85.8945 7.43833 86.0898 7.76099 86.1664C8.58755 86.3609 9.42974 86.4883 10.2665 86.6422L12.636 86.6406C15.2563 86.407 17.6415 85.5094 19.7969 84.0219C23.1657 81.6969 25.4352 78.5797 26.411 74.5789C27.1204 71.6711 27.1493 68.7602 26.3133 65.8656C26.2333 65.5975 26.141 65.3331 26.0368 65.0734C25.9352 64.8133 25.8157 64.5602 25.675 64.2359L31.0469 61.1469L31.1274 61.2156C31.0297 61.5352 30.9258 61.8539 30.8375 62.1766C30.1993 64.5078 29.775 66.8797 29.9274 69.2992C30.0899 71.8773 30.8094 74.2906 32.3188 76.4445C33.5391 78.1867 36.4469 78.2516 37.7438 76.5031C38.204 75.882 38.65 75.2328 38.9852 74.5398C39.861 72.7313 40.6719 70.8906 41.5086 69.0625L41.6547 68.7281C41.5946 69.5938 41.5243 70.3539 41.4922 71.1148C41.4422 72.3031 41.5118 73.4844 41.918 74.6148C42.2657 75.582 42.8571 76.3047 43.9649 76.432C44.7227 76.5188 45.3266 76.1719 45.8836 75.732C46.7466 75.0501 47.4619 74.1998 47.986 73.2328C49.4711 70.5055 50.9961 67.7945 52.3422 64.9984C53.7985 61.9742 55.0719 58.8617 56.4243 55.7859L56.6477 55.2406C56.9672 56.4961 57.1899 57.7258 57.6 58.8898C58.0766 60.2406 58.6665 61.5594 59.3086 62.8414C59.6125 63.4469 59.5774 63.8398 59.1563 64.3477C57.3938 66.4727 55.6618 68.6234 53.9282 70.7719C53.5446 71.2461 53.1625 71.7289 52.843 72.2469C52.6492 72.574 52.5217 72.9361 52.468 73.3125C52.4142 73.659 52.4967 74.0129 52.6982 74.3C52.8996 74.5871 53.2043 74.785 53.5485 74.8523C54.2431 75.0019 54.9553 75.0527 55.6641 75.0031C58.0836 74.825 60.2805 73.9758 62.2227 72.5367C64.7391 70.6727 65.5469 68.1289 64.9375 65.1141C64.7727 64.2961 64.4813 63.5008 64.1977 62.7125C64.0704 62.357 64.0618 62.1078 64.2938 61.7766C66.3055 58.9039 68.0243 55.8562 69.6227 52.7383C69.686 52.6156 69.7508 52.493 69.8618 52.3617C70.3797 55.057 71.1594 57.6547 72.5563 60.0117C71.8438 60.6984 71.1383 61.3211 70.5 62.007C69.0946 63.518 67.8758 65.1586 67.2399 67.1594C66.9665 68.0219 66.7563 68.8984 66.8782 69.8195C67.0672 71.25 68.2391 72.1797 69.6461 71.8539C72.6571 71.157 75.2563 69.7383 77.1555 67.225C78.4336 65.5328 78.55 63.6453 78.0149 61.668C77.868 61.1305 77.6938 60.6016 77.5063 59.9852C78.2493 59.7547 78.9735 59.4781 79.7227 59.307C83.6125 58.4195 87.4602 58.5742 91.2086 59.9789C93.3969 60.7992 95.1649 62.1719 96.2133 64.3313C97.4938 66.9711 96.786 69.4758 94.2977 71.1445C94.0657 71.3 93.8 71.4227 93.6079 71.6172C93.5463 71.6885 93.5003 71.7719 93.4727 71.862C93.4451 71.9522 93.4366 72.047 93.4477 72.1406C93.4641 72.2367 93.718 72.357 93.8641 72.3555C94.6821 72.3492 95.3454 71.9203 95.9821 71.4797C97.5774 70.3758 98.7415 68.8906 98.9922 66.9352L99.0415 66.7883L98.9813 65.5148C98.9571 65.4414 98.9993 65.3687 98.9938 65.3133C98.6547 62.4656 97.1336 60.257 94.9211 58.5258C92.3586 56.5219 89.3329 55.6969 86.1329 55.5664C83.5375 55.4547 80.9456 55.8537 78.504 56.7406C77.8032 56.9945 77.1086 57.2953 76.404 57.5789C76.3094 57.4078 76.2079 57.2438 76.1243 57.0742C75.4008 55.593 74.5243 54.1773 74.3305 52.4789C74.193 51.2727 74.0243 50.068 74.311 48.875C74.5868 47.7273 74.9461 46.5992 75.2844 45.4672C75.4586 44.8844 75.336 44.5578 74.7797 44.2953C74.5859 44.1987 74.3791 44.1308 74.1657 44.0937C72.7985 43.8953 71.45 44.0086 70.1258 44.3938C69.6571 44.5305 69.3165 44.793 69.2125 45.3117C69.1532 45.6094 69.0321 45.8945 68.9477 46.1883C68.6016 47.4094 68.3563 48.6539 67.7969 49.8172C66.3954 52.7352 64.7954 55.543 63.1579 58.3305C62.9805 58.6313 62.7938 58.9266 62.5704 59.2914C61.9954 58.0883 61.3821 57.0086 61.1961 55.743C60.986 54.3117 60.8204 52.8828 61.1766 51.4625C61.4415 50.4031 61.7875 49.3633 62.1063 48.318C62.2571 47.8211 62.1875 47.5602 61.7375 47.2984C61.5102 47.1664 61.2532 47.0492 60.9969 47.0109C59.595 46.7974 58.1626 46.9146 56.8141 47.3531C56.3899 47.4906 56.1672 47.7648 56.0375 48.2023C55.6563 49.493 55.3313 50.8148 54.7961 52.0422C52.629 57.0109 50.3993 61.9539 48.1719 66.8961C47.7071 67.9281 47.1625 68.9242 46.6383 69.9289C46.5055 70.1836 46.3118 70.4078 46.1461 70.6469C46.0133 70.4898 45.9618 70.382 45.9625 70.2742C45.9665 69.6391 45.8907 68.9852 46.0118 68.3711C46.3836 66.5139 46.7946 64.6648 47.2446 62.825C47.6118 61.3047 48.0391 59.7984 48.4461 58.2883C48.5829 57.7828 48.5852 57.3102 48.2219 56.8852C47.6118 56.1734 46.3368 56.0172 45.5805 56.5656L45.2461 56.7547L45.311 56.2156C45.4704 55.0602 45.5024 53.9086 45.1852 52.7703C44.7899 51.3516 43.7774 50.5352 42.3055 50.5805C41.6196 50.6016 40.8993 50.7187 40.2641 50.9687C37.593 52.0156 35.5391 53.8695 33.7907 56.1C33.6286 56.3071 33.4277 56.4806 33.1993 56.6109C30.9391 57.8641 28.6719 59.1016 26.4055 60.3437L23.8829 61.7258C23.2063 61.0805 22.5915 60.4109 21.8938 59.843C19.7633 58.1055 17.5985 56.4109 15.4532 54.693C13.5516 53.1703 11.7094 51.5844 10.3 49.568C9.25161 48.068 8.57583 46.4266 8.51099 44.5719C8.42896 42.2086 9.09927 40.0492 10.3024 38.0391C11.8415 35.4672 13.9407 33.4031 16.2485 31.5336C18.6899 29.557 21.3305 27.8789 24.0672 26.3469C27.8961 24.2039 31.8344 22.307 36.0571 21.0547C40.3868 19.7703 44.7797 19.0352 49.311 19.5477C51.0922 19.7492 52.8219 20.157 54.4102 21.0281C55.6266 21.6945 56.6243 22.5672 57.0883 23.9312C57.5461 25.2734 57.5321 26.6336 57.2149 27.9969C56.5704 30.7578 55.0586 33.0336 53.1563 35.0672C50.036 38.4008 46.2297 40.6703 41.9446 42.1695C39.4807 43.0327 36.9173 43.5795 34.3157 43.7969C32.1836 43.9758 30.0961 43.7867 28.0774 43.0453C26.7407 42.5539 25.5766 41.8023 24.6407 40.7117C24.4735 40.5164 24.2594 40.3047 23.9477 40.4875C23.6422 40.6672 23.5883 40.9578 23.6907 41.2523C23.8618 41.7414 24.0196 42.2508 24.286 42.6883C24.9555 43.7859 25.9321 44.582 27.0071 45.2648C29.0719 46.5781 31.3797 47.0195 33.7727 47.1219C37.404 47.2789 40.9469 46.7367 44.4399 45.7625C49.4266 44.3719 53.7625 41.9156 57.2399 38.0406C60.1352 34.8141 62.2032 31.1727 62.6461 26.7758C62.8625 24.6297 62.6321 22.5273 61.6274 20.5695C60.5375 18.4484 58.8047 16.8711 56.7329 15.7844C53.7157 14.2023 50.4594 13.2812 47.0985 13.2812H43.7313C39.661 13.2812 35.7258 14.4477 31.9008 15.8391C29.0055 16.893 26.1665 18.1367 23.4102 19.5133C17.4079 22.5125 11.818 26.1289 7.22661 31.1016C4.93911 33.5789 3.00239 36.3125 1.88833 39.5312C1.55208 40.4922 1.26242 41.4689 1.02036 42.4578M22.7696 70.593C22.5094 74.0766 20.9305 76.9008 18.35 79.1883C16.8985 80.4742 15.2336 81.3898 13.2946 81.7117C12.5915 81.8281 11.8719 81.8562 11.1899 81.5648C10.2172 81.1492 9.99927 80.2859 9.98052 79.3664C9.95161 77.9008 10.4649 76.5758 11.1688 75.3148C12.0875 73.6711 13.4344 72.418 14.8727 71.2477C17.1383 69.4031 19.5961 67.8422 22.1133 66.3688L22.3032 66.2906C22.6922 67.7281 22.8774 69.1477 22.7696 70.593ZM42.4243 55.4531C42.2407 56.5656 42.011 57.6789 41.686 58.757C40.5625 62.4891 39.1196 66.1055 37.5594 69.6734C37.2711 70.3336 36.8516 70.9359 36.4868 71.5617C36.4247 71.6579 36.3504 71.7456 36.2657 71.8227C35.8141 72.2687 35.386 72.2453 35.1579 71.6617C34.8922 70.9836 34.729 70.2578 34.5883 69.5398C34.4938 69.0578 34.5165 68.5516 34.4868 68.0578C34.5172 64.5469 35.5883 61.3563 37.4055 58.3859C38.1547 57.1609 38.9704 55.9938 40.2165 55.2188C40.6041 54.9777 41.0235 54.7921 41.4625 54.6672C42.1266 54.4805 42.5344 54.7875 42.4243 55.4531ZM55.8336 72.5375L60.6532 66.9102C60.854 69 57.3016 73.1719 55.8336 72.5375ZM71.2266 68.7508C70.886 68.9461 70.5149 69.0867 70.1657 69.2672C69.8461 69.4328 69.7407 69.2656 69.7313 68.9906C69.7266 68.8003 69.7511 68.6103 69.804 68.4273C70.4547 66.132 71.6524 64.1727 73.4344 62.5789L73.5594 62.5148C74.4071 64.8859 73.4274 67.4898 71.2266 68.7508Z" fill="#CB6699"/>
</svg>
