<svg width="100" height="100" viewBox="0 0 100 100" fill="none" xmlns="http://www.w3.org/2000/svg">
<g clip-path="url(#clip0_102_102)">
<path d="M50.0032 20.0016C36.6696 20.0016 28.3391 26.6657 25.0032 39.9992C30.0016 33.3344 35.8368 30.8352 42.5016 32.5016C46.3071 33.45 49.0266 36.2094 52.0383 39.2672C56.9399 44.2414 62.6133 50 75.0032 50C88.336 50 96.6672 43.3352 100.003 29.9985C95.004 36.6672 89.1696 39.1664 82.504 37.5C78.6993 36.5508 75.9829 33.7922 72.9672 30.7344C68.0688 25.7602 62.3969 20.0016 50.0032 20.0016ZM25.0032 50C11.6704 50 3.33911 56.6649 0.00317383 70.0016C5.00161 63.3328 10.836 60.8336 17.5016 62.5C21.3071 63.4492 24.0266 66.2078 27.0383 69.2657C31.9399 74.2399 37.6133 79.9985 50.0032 79.9985C63.336 79.9985 71.6672 73.3344 75.0032 60.0008C70.004 66.6657 64.1696 69.1649 57.504 67.4985C53.6993 66.55 50.9829 63.7907 47.9672 60.7328C43.0688 55.7586 37.3969 50 25.0032 50Z" fill="#38BDF8"/>
</g>
<defs>
<clipPath id="clip0_102_102">
<rect width="100" height="100" fill="white"/>
</clipPath>
</defs>
</svg>
