<svg width="100" height="100" viewBox="0 0 100 100" fill="none" xmlns="http://www.w3.org/2000/svg">
<g clip-path="url(#clip0_102_120)">
<path d="M85 0H15C6.71573 0 0 6.71573 0 15V85C0 93.2843 6.71573 100 15 100H85C93.2843 100 100 93.2843 100 85V15C100 6.71573 93.2843 0 85 0Z" fill="#F7DF1E"/>
<path d="M66.7969 77.7344C68.75 81.0547 71.4844 83.3984 75.9766 83.3984C79.8828 83.3984 82.4219 81.4453 82.4219 78.7109C82.4219 75.5859 79.8828 74.4141 75.5859 72.4609L73.2422 71.4844C66.4062 68.5547 61.9141 65.0391 61.9141 57.4219C61.9141 50.3906 67.1875 44.9219 75.5859 44.9219C81.6406 44.9219 85.9375 47.0703 88.8672 52.5391L81.6406 57.2266C80.0781 54.2969 78.3203 53.125 75.5859 53.125C72.8516 53.125 71.0938 54.8828 71.0938 57.2266C71.0938 59.9609 72.8516 61.1328 76.9531 62.8906L79.2969 63.8672C87.3047 67.3828 91.7969 70.7031 91.7969 78.7109C91.7969 87.1094 85.1562 91.7969 76.1719 91.7969C67.3828 91.7969 61.7188 87.6953 58.9844 82.2266L66.7969 77.7344ZM33.5938 78.5156C35.1562 81.0547 36.3281 83.3984 39.6484 83.3984C42.7734 83.3984 44.7266 82.2266 44.7266 77.5391V45.1172H54.1016V77.1484C54.1016 86.9141 48.4375 91.2109 40.0391 91.2109C32.4219 91.2109 28.125 87.3047 25.9766 82.6172L33.5938 78.5156Z" fill="black"/>
</g>
<defs>
<clipPath id="clip0_102_120">
<rect width="100" height="100" fill="white"/>
</clipPath>
</defs>
</svg>
