<svg width="100" height="100" viewBox="0 0 100 100" fill="none" xmlns="http://www.w3.org/2000/svg">
<g clip-path="url(#clip0_102_126)">
<path d="M49.5786 100C48.2394 100 46.9094 99.6487 45.7354 98.9727L33.5022 91.7302C31.6751 90.7084 32.5666 90.347 33.1693 90.1388C35.6054 89.2858 36.0998 89.0932 38.7002 87.6164C38.9735 87.4605 39.3312 87.5155 39.611 87.6806L49.009 93.2574C49.3483 93.4409 49.8299 93.4409 50.1445 93.2574L86.788 72.106C87.1274 71.9134 87.3475 71.519 87.3475 71.1154V28.8309C87.3475 28.409 87.1274 28.0329 86.7806 27.822L50.1518 6.68892C49.8125 6.48713 49.363 6.48713 49.0236 6.68892L12.4022 27.822C12.0472 28.0238 11.8216 28.4182 11.8216 28.8218V71.1062C11.8216 71.5098 12.0417 71.895 12.3903 72.0877L22.4248 77.8846C27.8732 80.6088 31.2027 77.3984 31.2027 74.1698V32.4357C31.2027 31.8395 31.6705 31.3808 32.2667 31.3808H36.9079C37.4858 31.3808 37.9627 31.8395 37.9627 32.4357V74.1881C37.9627 81.4526 34.0003 85.626 27.1118 85.626C24.993 85.626 23.3237 85.626 18.6641 83.3329L9.05152 77.7929C6.67589 76.417 5.20831 73.8488 5.20831 71.1062V28.8218C5.20831 26.0701 6.67589 23.5018 9.05152 22.1443L45.7317 0.983733C48.0523 -0.327911 51.1342 -0.327911 53.4364 0.983733L90.0708 22.1535C92.4372 23.5202 93.914 26.0792 93.914 28.8309V71.1154C93.914 73.8579 92.4372 76.417 90.0708 77.7929L53.4364 98.9534C52.2624 99.6322 50.9324 99.9807 49.5749 99.9807L49.5786 100ZM60.8972 70.8632C44.864 70.8632 41.5023 63.5033 41.5023 57.3303C41.5023 56.7433 41.9756 56.2755 42.5636 56.2755H47.2965C47.8193 56.2755 48.2596 56.6561 48.3421 57.1725C49.0576 61.9953 51.1856 64.4279 60.8807 64.4279C68.6038 64.4279 71.8875 62.6833 71.8875 58.5878C71.8875 56.2305 70.9519 54.4786 58.9545 53.3046C48.92 52.3139 42.7195 50.1034 42.7195 42.0776C42.7195 34.6847 48.9567 30.282 59.404 30.282C71.1354 30.282 76.9506 34.3545 77.6844 43.1049C77.712 43.4076 77.6019 43.7011 77.4001 43.9213C77.1983 44.1322 76.914 44.2606 76.6204 44.2606H71.86C71.3647 44.2606 70.9336 43.9121 70.8327 43.4351C69.6862 38.3628 66.9161 36.7393 59.3856 36.7393C50.9563 36.7393 49.9748 39.6745 49.9748 41.8758C49.9748 44.545 51.1305 45.3246 62.5042 46.8289C73.7678 48.324 79.1153 50.4336 79.1153 58.3493C79.1153 66.3293 72.4562 70.9063 60.844 70.9063L60.8972 70.8632Z" fill="#689F63"/>
</g>
<defs>
<clipPath id="clip0_102_126">
<rect width="100" height="100" fill="white"/>
</clipPath>
</defs>
</svg>
