<svg width="100" height="100" viewBox="0 0 100 100" fill="none" xmlns="http://www.w3.org/2000/svg">
<path d="M0 50C0 64.5258 22.3859 76.3023 50 76.3023C77.6141 76.3023 100 64.5258 100 50C100 35.4742 77.6133 23.6976 50 23.6976C22.3859 23.6976 0 35.4742 0 50Z" fill="url(#paint0_radial_102_130)"/>
<path d="M50 74.3492C76.5352 74.3492 98.0469 63.4469 98.0469 50C98.0469 36.5515 76.5352 25.6508 50 25.6508C23.4648 25.6508 1.95312 36.5515 1.95312 50C1.95312 63.4469 23.4648 74.3492 50 74.3492Z" fill="#777BB3"/>
<path d="M27.1656 53.0188C29.3476 53.0188 30.9758 52.6164 32.0062 51.8234C33.0265 51.0375 33.7305 49.6773 34.1 47.7805C34.4437 46.007 34.3125 44.7695 33.7094 44.1008C33.0937 43.418 31.7617 43.0719 29.7508 43.0719H26.2633L24.3312 53.0188H27.1656ZM15.7601 65.2711C15.6801 65.271 15.6011 65.2532 15.5288 65.2189C15.4565 65.1847 15.3927 65.1348 15.3419 65.073C15.2911 65.0112 15.2546 64.9389 15.2351 64.8613C15.2156 64.7837 15.2134 64.7027 15.2289 64.6242L20.3515 38.2664C20.3758 38.1432 20.4419 38.0322 20.5388 37.9523C20.6357 37.8723 20.7572 37.8285 20.8828 37.8281H31.925C35.3953 37.8281 37.9781 38.7703 39.6023 40.6289C41.2336 42.4961 41.7383 45.1086 41.1 48.3906C40.8398 49.7273 40.393 50.9688 39.7719 52.0813C39.1253 53.2255 38.3004 54.2594 37.3281 55.1438C36.132 56.2625 34.7781 57.075 33.307 57.5523C31.8601 58.0242 30.0008 58.2633 27.7836 58.2633H23.3117L22.0351 64.832C22.011 64.9557 21.9447 65.0671 21.8475 65.1472C21.7503 65.2273 21.6283 65.2711 21.5023 65.2711H15.7601Z" fill="black"/>
<path d="M26.711 43.6141H29.7508C32.1782 43.6141 33.0211 44.1469 33.3078 44.4648C33.7821 44.9914 33.8727 46.1031 33.5664 47.6773C33.2235 49.4406 32.5875 50.6914 31.6758 51.393C30.743 52.1117 29.2242 52.4758 27.1656 52.4758H24.9891L26.7117 43.6148L26.711 43.6141ZM31.925 37.2859H20.8836C20.6318 37.286 20.3879 37.3735 20.1935 37.5335C19.9991 37.6936 19.8664 37.9162 19.818 38.1633L14.6953 64.5219C14.6651 64.6789 14.6699 64.8406 14.7094 64.9956C14.7489 65.1505 14.8221 65.2948 14.9238 65.4182C15.0255 65.5416 15.1533 65.6409 15.2978 65.7092C15.4424 65.7775 15.6003 65.8131 15.7602 65.8133H21.5024C21.7541 65.813 21.998 65.7253 22.1922 65.5652C22.3865 65.405 22.519 65.1823 22.5672 64.9352L23.7586 58.8055H27.7828C30.0578 58.8055 31.9735 58.557 33.4758 58.068C35.0203 57.5664 36.4414 56.7156 37.6992 55.5391C38.712 54.6166 39.5714 53.5388 40.2453 52.3461C40.8946 51.1844 41.3617 49.8875 41.6321 48.4938C42.3039 45.0383 41.7578 42.2719 40.0102 40.2719C38.2789 38.2898 35.5586 37.2852 31.925 37.2852V37.2859ZM23.6727 53.5602H27.1656C29.4805 53.5602 31.2047 53.125 32.3375 52.2516C33.4711 51.3797 34.2344 49.9234 34.6328 47.8836C35.0117 45.9242 34.8391 44.5422 34.1133 43.7367C33.386 42.932 31.9328 42.5289 29.7508 42.5289H25.8164L23.6727 53.5602ZM31.9258 38.3688C35.2477 38.3688 37.6703 39.2414 39.1938 40.9844C40.7172 42.7281 41.175 45.1617 40.5688 48.2859C40.3172 49.5734 39.8946 50.75 39.2992 51.8156C38.7024 52.8828 37.9242 53.8578 36.9625 54.743C35.8156 55.8156 34.543 56.5805 33.1406 57.0359C31.7391 57.4922 29.9531 57.7195 27.7836 57.7195H22.8649L21.5031 64.7273H15.761L20.8844 38.3688H31.9258Z" fill="white"/>
<path d="M54.2649 58.2633C54.1848 58.2634 54.1057 58.2457 54.0333 58.2116C53.9608 58.1775 53.8968 58.1278 53.8459 58.0661C53.7949 58.0043 53.7583 57.932 53.7386 57.8544C53.719 57.7768 53.7167 57.6958 53.732 57.6172L55.9977 45.9547C56.2141 44.8453 56.161 44.05 55.8492 43.7125C55.6578 43.507 55.0844 43.1625 53.3883 43.1625H49.282L46.4336 57.825C46.4092 57.9485 46.3426 58.0596 46.2452 58.1394C46.1479 58.2192 46.0259 58.2627 45.9 58.2625H40.2047C40.1247 58.2625 40.0457 58.2449 39.9733 58.2109C39.9009 58.1768 39.8369 58.1272 39.7859 58.0655C39.7349 58.0039 39.6982 57.9317 39.6783 57.8542C39.6585 57.7767 39.656 57.6958 39.6711 57.6172L44.7945 31.2586C44.8188 31.1351 44.8852 31.0239 44.9824 30.944C45.0796 30.864 45.2015 30.8203 45.3274 30.8203H51.0227C51.1027 30.8203 51.1817 30.8379 51.2541 30.8719C51.3265 30.906 51.3905 30.9556 51.4415 31.0173C51.4925 31.0789 51.5292 31.1511 51.549 31.2286C51.5689 31.3061 51.5713 31.3871 51.5563 31.4656L50.3203 37.8281H54.7367C58.1016 37.8281 60.3828 38.4203 61.7117 39.6414C63.0656 40.8859 63.4891 42.8758 62.968 45.5578L60.5844 57.825C60.56 57.9483 60.4935 58.0594 60.3963 58.1392C60.2992 58.219 60.1773 58.2625 60.0516 58.2625H54.2649V58.2633Z" fill="black"/>
<path d="M51.0234 30.2773H45.3273C45.0754 30.2774 44.8314 30.365 44.637 30.5252C44.4426 30.6854 44.3099 30.9082 44.2617 31.1555L39.139 57.5133C39.1086 57.6703 39.1133 57.8322 39.1528 57.9872C39.1922 58.1423 39.2654 58.2867 39.3672 58.4101C39.4689 58.5336 39.5966 58.633 39.7413 58.7014C39.8859 58.7697 40.0439 58.8053 40.2039 58.8055H45.9C46.1519 58.8054 46.3959 58.7178 46.5903 58.5576C46.7847 58.3974 46.9174 58.1746 46.9656 57.9273L49.7289 43.7047H53.3867C55.0804 43.7047 55.4367 44.0664 55.45 44.0828C55.5531 44.1922 55.6883 44.7039 55.4648 45.8516L53.1992 57.5133C53.1688 57.6704 53.1735 57.8323 53.213 57.9874C53.2525 58.1425 53.3257 58.287 53.4276 58.4104C53.5294 58.5339 53.6572 58.6333 53.802 58.7016C53.9467 58.7699 54.1048 58.8054 54.2648 58.8055H60.0523C60.3041 58.8052 60.5479 58.7175 60.7422 58.5573C60.9364 58.3972 61.069 58.1745 61.1172 57.9273L63.5007 45.6617C64.0593 42.782 63.5812 40.6227 62.0789 39.2422C60.6445 37.925 58.2429 37.2852 54.7367 37.2852H50.9789L52.089 31.5703C52.1196 31.4131 52.1149 31.2511 52.0755 31.0959C52.0361 30.9407 51.9629 30.7962 51.861 30.6726C51.7592 30.5491 51.6313 30.4495 51.4865 30.3812C51.3417 30.3129 51.1835 30.2774 51.0234 30.2773ZM51.0234 31.3633L49.6617 38.3695H54.7367C57.9297 38.3695 60.1328 38.9273 61.3437 40.0414C62.557 41.1555 62.9195 42.9594 62.4359 45.4555L60.0515 57.7203H54.2648L56.5312 46.0578C56.789 44.7312 56.6937 43.8266 56.2461 43.3437C55.7984 42.8617 54.8453 42.6203 53.3882 42.6203H48.8343L45.9 57.7195H40.2031L45.3265 31.3609H51.0234V31.3633Z" fill="white"/>
<path d="M71.9812 53.0188C74.1633 53.0188 75.7922 52.6164 76.8234 51.8234C77.8422 51.0375 78.5469 49.6773 78.9164 47.7805C79.2601 46.007 79.1297 44.7695 78.5258 44.1008C77.9101 43.418 76.5781 43.0719 74.5672 43.0719H71.0805L69.1469 53.0188H71.9812ZM60.5781 65.2711C60.498 65.2712 60.4188 65.2536 60.3463 65.2194C60.2738 65.1853 60.2097 65.1355 60.1588 65.0736C60.1078 65.0118 60.0712 64.9394 60.0516 64.8617C60.032 64.7839 60.0298 64.7029 60.0453 64.6242L65.168 38.2664C65.1922 38.1429 65.2586 38.0317 65.3558 37.9518C65.453 37.8718 65.5749 37.8281 65.7008 37.8281H76.7422C80.2125 37.8281 82.7953 38.7703 84.4187 40.6289C86.0508 42.4961 86.5547 45.1086 85.9164 48.3906C85.6725 49.6834 85.2244 50.9292 84.589 52.0813C83.9423 53.2254 83.1174 54.2592 82.1453 55.1438C80.95 56.2625 79.5945 57.075 78.1242 57.5523C76.6773 58.0242 74.818 58.2633 72.6 58.2633H68.1289L66.8531 64.832C66.829 64.9558 66.7625 65.0673 66.6652 65.1474C66.5678 65.2275 66.4456 65.2712 66.3195 65.2711H60.5781Z" fill="black"/>
<path d="M71.5274 43.6141H74.5672C76.9946 43.6141 77.8375 44.1469 78.1235 44.4648C78.6 44.9914 78.6891 46.1031 78.3836 47.6773C78.0399 49.4406 77.4039 50.6914 76.4922 51.393C75.5586 52.1117 74.0399 52.4758 71.9821 52.4758H69.8055L71.5274 43.6141ZM76.7414 37.2859H65.7C65.4484 37.2861 65.2046 37.3737 65.0104 37.5338C64.8161 37.6938 64.6835 37.9163 64.6352 38.1633L59.5117 64.5219C59.4815 64.6789 59.4863 64.8408 59.5258 64.9958C59.5654 65.1508 59.6387 65.2951 59.7405 65.4185C59.8423 65.5419 59.9701 65.6412 60.1148 65.7095C60.2594 65.7777 60.4174 65.8132 60.5774 65.8133H66.3196C66.5713 65.813 66.8152 65.7253 67.0094 65.5652C67.2037 65.405 67.3362 65.1823 67.3844 64.9352L68.5758 58.8055H72.5992C74.8735 58.8055 76.7899 58.557 78.2914 58.068C79.8367 57.5664 81.2578 56.7156 82.5164 55.5383C83.5289 54.616 84.388 53.5385 85.0617 52.3461C85.7117 51.1844 86.1774 49.8875 86.4485 48.4938C87.1203 45.0383 86.575 42.2719 84.8266 40.2719C83.0953 38.2898 80.3758 37.2852 76.7406 37.2852L76.7414 37.2859ZM68.4891 53.5602H71.9813C74.2969 53.5602 76.0203 53.125 77.1547 52.2516C78.2875 51.3797 79.0516 49.9234 79.4485 47.8836C79.8289 45.9242 79.6563 44.5422 78.9289 43.7367C78.2024 42.932 76.7485 42.5289 74.5672 42.5289H70.6336L68.4891 53.5602ZM76.7414 38.3688C80.0625 38.3688 82.4867 39.2414 84.0094 40.9844C85.5328 42.7281 85.9914 45.1617 85.3836 48.2859C85.1336 49.5734 84.7102 50.75 84.1149 51.8156C83.5188 52.8828 82.7399 53.8578 81.7774 54.743C80.6313 55.8156 79.3578 56.5805 77.9555 57.0359C76.5547 57.4922 74.7696 57.7195 72.5992 57.7195H67.6813L66.318 64.7273H60.5758L65.6992 38.3688H76.7414Z" fill="white"/>
<defs>
<radialGradient id="paint0_radial_102_130" cx="0" cy="0" r="1" gradientUnits="userSpaceOnUse" gradientTransform="translate(30.0203 32.9445) scale(65.6573 65.6573)">
<stop stop-color="#AEB2D5"/>
<stop offset="0.3" stop-color="#AEB2D5"/>
<stop offset="0.75" stop-color="#484C89"/>
<stop offset="1" stop-color="#484C89"/>
</radialGradient>
</defs>
</svg>
