<svg xmlns="http://www.w3.org/2000/svg" width="80" height="80" viewBox="0 0 80 80" fill="none">
  <path d="M66.405 20.0525L40.165 43.085V72.9325L54.7675 80H20.545L35.15 72.935V43.085L8.595 20.0525H49.1L57.2075 6.005L59.3875 7.2625L52.005 20.05L66.405 20.0525ZM60.2775 22.4125L50.62 22.45L47.645 27.605H54.5075L60.2775 22.4125ZM40.165 37.6725C41.6425 37.6725 42.8375 36.475 42.8375 34.9975C42.8375 33.52 41.64 32.3225 40.165 32.3225C38.69 32.3225 37.49 33.52 37.49 34.9975C37.49 36.4775 38.69 37.6725 40.165 37.6725ZM14.725 22.4125L20.5425 27.605H44.74L47.71 22.4625L14.725 22.4125Z" fill="#DF1616" fill-opacity="0.4"/>
</svg>