<svg xmlns="http://www.w3.org/2000/svg" width="84" height="68" viewBox="0 0 84 68" fill="none">
  <path d="M39 26.1415C37.4128 28.8984 35.0563 31.1028 32.2355 32.4696C29.4147 33.8363 26.2592 34.3026 23.1774 33.808C20.0957 33.3135 17.2293 31.8808 14.9493 29.6954C12.6693 27.51 11.0805 24.6725 10.3884 21.5499C9.69636 18.4273 9.93292 15.1633 11.0675 12.1802C12.202 9.19718 14.1824 6.6323 16.7523 4.81742C19.3223 3.00255 22.3636 2.0212 25.4827 2.00034C28.6018 1.97948 31.6553 2.92007 34.2481 4.70041" stroke="black" stroke-width="3" stroke-linecap="round" stroke-linejoin="round"/>
  <path d="M39 26.1415C37.4128 28.8984 35.0563 31.1028 32.2355 32.4696C29.4147 33.8363 26.2592 34.3026 23.1774 33.808C20.0957 33.3135 17.2293 31.8808 14.9493 29.6954C12.6693 27.51 11.0805 24.6725 10.3884 21.5499C9.69636 18.4273 9.93292 15.1633 11.0675 12.1802C12.202 9.19718 14.1824 6.6323 16.7523 4.81742C19.3223 3.00255 22.3636 2.0212 25.4827 2.00034C28.6018 1.97948 31.6553 2.92007 34.2481 4.70041" stroke="#E53939" stroke-opacity="0.5" stroke-width="3" stroke-linecap="round" stroke-linejoin="round"/>
  <path d="M28.1597 16.0608C26.7967 17.9222 25.7305 19.9874 25 22.1817C25 22.1817 30.3159 21.1331 31.3921 25.478C31.3921 25.478 37.8517 22.2171 41.0814 27.6525C41.0814 27.6525 49.6933 24.3915 52.9231 30.9134C52.9231 30.9134 57.2291 26.5646 62.6112 32C62.6112 32 63.3304 30.5582 66.442 30.8309C66.6441 30.8432 66.8465 30.8132 67.0365 30.7428C67.2265 30.6725 67.4001 30.5632 67.5463 30.422C67.6926 30.2807 67.8084 30.1105 67.8864 29.9219C67.9644 29.7333 68.003 29.5305 67.9998 29.3262C68.0056 26.3958 67.4389 23.4931 66.332 20.7842C65.2252 18.0753 63.6 15.6134 61.5494 13.5396C59.4989 11.4657 57.0634 9.82062 54.3823 8.69846C51.7012 7.5763 48.8272 6.99913 45.9248 7H45.8521C42.5296 7.06148 39.2689 7.9181 36.338 9.49948L35.4916 9.93987C32.6155 11.3861 30.107 13.4803 28.1597 16.0608Z" stroke="black" stroke-width="3" stroke-linecap="round" stroke-linejoin="round"/>
  <path d="M28.1597 16.0608C26.7967 17.9222 25.7305 19.9874 25 22.1817C25 22.1817 30.3159 21.1331 31.3921 25.478C31.3921 25.478 37.8517 22.2171 41.0814 27.6525C41.0814 27.6525 49.6933 24.3915 52.9231 30.9134C52.9231 30.9134 57.2291 26.5646 62.6112 32C62.6112 32 63.3304 30.5582 66.442 30.8309C66.6441 30.8432 66.8465 30.8132 67.0365 30.7428C67.2265 30.6725 67.4001 30.5632 67.5463 30.422C67.6926 30.2807 67.8084 30.1105 67.8864 29.9219C67.9644 29.7333 68.003 29.5305 67.9998 29.3262C68.0056 26.3958 67.4389 23.4931 66.332 20.7842C65.2252 18.0753 63.6 15.6134 61.5494 13.5396C59.4989 11.4657 57.0634 9.82062 54.3823 8.69846C51.7012 7.5763 48.8272 6.99913 45.9248 7H45.8521C42.5296 7.06148 39.2689 7.9181 36.338 9.49948L35.4916 9.93987C32.6155 11.3861 30.107 13.4803 28.1597 16.0608Z" stroke="#E53939" stroke-opacity="0.5" stroke-width="3" stroke-linecap="round" stroke-linejoin="round"/>
  <path d="M48 8C44.25 9.39715 40.8597 11.6546 38.0871 14.6005C35.3145 17.5464 33.2326 21.1031 32 25" stroke="black" stroke-width="3" stroke-linecap="round" stroke-linejoin="round"/>
  <path d="M48 8C44.25 9.39715 40.8597 11.6546 38.0871 14.6005C35.3145 17.5464 33.2326 21.1031 32 25" stroke="#E53939" stroke-opacity="0.5" stroke-width="3" stroke-linecap="round" stroke-linejoin="round"/>
  <path d="M41 27C41.6005 19.6666 45.1895 12.8476 51 8" stroke="black" stroke-width="3" stroke-linecap="round" stroke-linejoin="round"/>
  <path d="M41 27C41.6005 19.6666 45.1895 12.8476 51 8" stroke="#E53939" stroke-opacity="0.5" stroke-width="3" stroke-linecap="round" stroke-linejoin="round"/>
  <path d="M53.459 8C54.6155 12.6194 56.4661 22.6837 53 30" stroke="black" stroke-width="3" stroke-linecap="round" stroke-linejoin="round"/>
  <path d="M53.459 8C54.6155 12.6194 56.4661 22.6837 53 30" stroke="#E53939" stroke-opacity="0.5" stroke-width="3" stroke-linecap="round" stroke-linejoin="round"/>
  <path d="M62.8005 31C63.2698 27.2583 62.9091 23.4678 61.7401 19.8582C60.5712 16.2485 58.6184 12.8948 56 10" stroke="black" stroke-width="3" stroke-linecap="round" stroke-linejoin="round"/>
  <path d="M62.8005 31C63.2698 27.2583 62.9091 23.4678 61.7401 19.8582C60.5712 16.2485 58.6184 12.8948 56 10" stroke="#E53939" stroke-opacity="0.5" stroke-width="3" stroke-linecap="round" stroke-linejoin="round"/>
  <path d="M40 55L47 28" stroke="black" stroke-width="3" stroke-linecap="round" stroke-linejoin="round"/>
  <path d="M40 55L47 28" stroke="#E53939" stroke-opacity="0.5" stroke-width="3" stroke-linecap="round" stroke-linejoin="round"/>
  <path d="M15.9355 66H2C2 63.3478 3.08755 60.8043 5.02341 58.9289C6.95927 57.0536 9.58486 56 12.3226 56H71.6774C74.4151 56 77.0407 57.0536 78.9766 58.9289C80.9124 60.8043 82 63.3478 82 66H25.7535" stroke="black" stroke-width="3" stroke-linecap="round" stroke-linejoin="round"/>
  <path d="M15.9355 66H2C2 63.3478 3.08755 60.8043 5.02341 58.9289C6.95927 57.0536 9.58486 56 12.3226 56H71.6774C74.4151 56 77.0407 57.0536 78.9766 58.9289C80.9124 60.8043 82 63.3478 82 66H25.7535" stroke="#E53939" stroke-opacity="0.5" stroke-width="3" stroke-linecap="round" stroke-linejoin="round"/>
  <path d="M82 46.6329C80.8988 46.181 79.6997 45.966 78.4943 46.0044C77.2889 46.0427 76.109 46.3334 75.0444 46.8542C73.8986 47.4165 72.6196 47.7106 71.3205 47.7106C70.0215 47.7106 68.7425 47.4165 67.5967 46.8542C66.5321 46.3334 65.3522 46.0427 64.1468 46.0044C62.9414 45.966 61.7423 46.181 60.6411 46.6329L58.8738 47.3654C57.8555 47.7838 56.7525 48 55.6369 48C54.5213 48 53.4183 47.7838 52.3999 47.3654L50.634 46.6329C49.5327 46.181 48.3337 45.966 47.1283 46.0044C45.9229 46.0427 44.7429 46.3334 43.6784 46.8542C42.5326 47.4165 41.2536 47.7106 39.9545 47.7106C38.6555 47.7106 37.3765 47.4165 36.2307 46.8542C35.1661 46.3334 33.9862 46.0427 32.7807 46.0044C31.5753 45.966 30.3763 46.181 29.2751 46.6329L27.5091 47.3654C26.4907 47.7838 25.3877 48 24.2722 48C23.1566 48 22.0536 47.7838 21.0352 47.3654L19.268 46.6329C18.1667 46.181 16.9677 45.966 15.7623 46.0044C14.5569 46.0427 13.3769 46.3334 12.3124 46.8542C11.1666 47.4165 9.88755 47.7106 8.58852 47.7106C7.2895 47.7106 6.0105 47.4165 4.86469 46.8542C3.97628 46.415 3.00328 46.1389 2 46.0413" stroke="black" stroke-width="3" stroke-linecap="round" stroke-linejoin="round"/>
  <path d="M82 46.6329C80.8988 46.181 79.6997 45.966 78.4943 46.0044C77.2889 46.0427 76.109 46.3334 75.0444 46.8542C73.8986 47.4165 72.6196 47.7106 71.3205 47.7106C70.0215 47.7106 68.7425 47.4165 67.5967 46.8542C66.5321 46.3334 65.3522 46.0427 64.1468 46.0044C62.9414 45.966 61.7423 46.181 60.6411 46.6329L58.8738 47.3654C57.8555 47.7838 56.7525 48 55.6369 48C54.5213 48 53.4183 47.7838 52.3999 47.3654L50.634 46.6329C49.5327 46.181 48.3337 45.966 47.1283 46.0044C45.9229 46.0427 44.7429 46.3334 43.6784 46.8542C42.5326 47.4165 41.2536 47.7106 39.9545 47.7106C38.6555 47.7106 37.3765 47.4165 36.2307 46.8542C35.1661 46.3334 33.9862 46.0427 32.7807 46.0044C31.5753 45.966 30.3763 46.181 29.2751 46.6329L27.5091 47.3654C26.4907 47.7838 25.3877 48 24.2722 48C23.1566 48 22.0536 47.7838 21.0352 47.3654L19.268 46.6329C18.1667 46.181 16.9677 45.966 15.7623 46.0044C14.5569 46.0427 13.3769 46.3334 12.3124 46.8542C11.1666 47.4165 9.88755 47.7106 8.58852 47.7106C7.2895 47.7106 6.0105 47.4165 4.86469 46.8542C3.97628 46.415 3.00328 46.1389 2 46.0413" stroke="#E53939" stroke-opacity="0.5" stroke-width="3" stroke-linecap="round" stroke-linejoin="round"/>
</svg>