<svg xmlns="http://www.w3.org/2000/svg" width="90" height="55" viewBox="0 0 90 55" fill="none">
<path d="M89.726 39.0099L84.4947 16.763C81.8452 6.87499 72.8849 0 62.6475 0H27.3522C17.1149 0 8.1548 6.87481 5.50524 16.763L0.273989 39.0099C-1.06511 45.3913 2.61891 51.7583 8.82153 53.7757L9.12739 53.8738C14.8681 55.7427 21.1312 53.3342 24.1442 48.1028L28.6959 41.3723C29.8388 39.388 31.9545 38.1642 34.2418 38.1642H55.7585C58.0458 38.1642 60.1615 39.388 61.3042 41.3723L65.8559 48.1028C68.8692 53.3342 75.1335 55.7427 80.8743 53.8738L81.1788 53.7757C87.3809 51.7583 91.0652 45.3913 89.726 39.0099ZM33.5823 24.1014H26.2541V31.4308H19.8741V24.1014H12.546V17.7242H19.8741V10.3976H26.2541V17.7242H33.5823V24.1014ZM65.8701 8.87081C68.0896 8.87081 69.8862 10.6675 69.8862 12.8871C69.8862 15.1037 68.0896 16.9003 65.8701 16.9003C63.6535 16.9003 61.8569 15.1037 61.8569 12.8871C61.8569 10.6673 63.6535 8.87081 65.8701 8.87081ZM57.8406 24.9311C55.624 24.9311 53.826 23.1328 53.826 20.9134C53.826 18.6982 55.624 16.9001 57.8406 16.9001C60.0586 16.9001 61.8553 18.6982 61.8553 20.9134C61.8555 23.133 60.0588 24.9311 57.8406 24.9311ZM65.8701 32.959C63.6535 32.959 61.8569 31.1623 61.8569 28.9457C61.8569 26.7262 63.6535 24.9295 65.8701 24.9295C68.0896 24.9295 69.8862 26.7262 69.8862 28.9457C69.8862 31.1623 68.0896 32.959 65.8701 32.959ZM73.8995 24.9311C71.6829 24.9311 69.886 23.1328 69.886 20.9134C69.886 18.6982 71.6829 16.9001 73.8995 16.9001C76.1175 16.9001 77.9156 18.6982 77.9156 20.9134C77.9156 23.133 76.1175 24.9311 73.8995 24.9311Z" fill="black"/>
<path d="M89.726 39.0099L84.4947 16.763C81.8452 6.87499 72.8849 0 62.6475 0H27.3522C17.1149 0 8.1548 6.87481 5.50524 16.763L0.273989 39.0099C-1.06511 45.3913 2.61891 51.7583 8.82153 53.7757L9.12739 53.8738C14.8681 55.7427 21.1312 53.3342 24.1442 48.1028L28.6959 41.3723C29.8388 39.388 31.9545 38.1642 34.2418 38.1642H55.7585C58.0458 38.1642 60.1615 39.388 61.3042 41.3723L65.8559 48.1028C68.8692 53.3342 75.1335 55.7427 80.8743 53.8738L81.1788 53.7757C87.3809 51.7583 91.0652 45.3913 89.726 39.0099ZM33.5823 24.1014H26.2541V31.4308H19.8741V24.1014H12.546V17.7242H19.8741V10.3976H26.2541V17.7242H33.5823V24.1014ZM65.8701 8.87081C68.0896 8.87081 69.8862 10.6675 69.8862 12.8871C69.8862 15.1037 68.0896 16.9003 65.8701 16.9003C63.6535 16.9003 61.8569 15.1037 61.8569 12.8871C61.8569 10.6673 63.6535 8.87081 65.8701 8.87081ZM57.8406 24.9311C55.624 24.9311 53.826 23.1328 53.826 20.9134C53.826 18.6982 55.624 16.9001 57.8406 16.9001C60.0586 16.9001 61.8553 18.6982 61.8553 20.9134C61.8555 23.133 60.0588 24.9311 57.8406 24.9311ZM65.8701 32.959C63.6535 32.959 61.8569 31.1623 61.8569 28.9457C61.8569 26.7262 63.6535 24.9295 65.8701 24.9295C68.0896 24.9295 69.8862 26.7262 69.8862 28.9457C69.8862 31.1623 68.0896 32.959 65.8701 32.959ZM73.8995 24.9311C71.6829 24.9311 69.886 23.1328 69.886 20.9134C69.886 18.6982 71.6829 16.9001 73.8995 16.9001C76.1175 16.9001 77.9156 18.6982 77.9156 20.9134C77.9156 23.133 76.1175 24.9311 73.8995 24.9311Z" fill="#E53939" fill-opacity="0.4"/>
</svg>