<svg xmlns="http://www.w3.org/2000/svg" width="66" height="65" viewBox="0 0 66 65" fill="none">
<path d="M49.1613 21.3949C48.386 22.5155 47.5476 23.5879 46.6633 24.6219C43.3815 28.4512 39.4208 31.6707 34.9654 34.1048C34.958 34.3867 34.958 34.6688 34.958 34.9434C34.958 39.2896 35.7172 43.6038 37.174 47.6694C37.9332 47.3404 38.6763 46.9879 39.4208 46.6193C49.1129 41.7881 57.0913 34.2854 62.5185 24.9038C62.9946 24.0739 63.4497 23.2354 63.88 22.3819C63.1986 20.2916 62.2824 18.2311 61.1397 16.2497C59.479 13.3766 57.4522 10.8546 55.151 8.71606C54.0542 12.6629 52.3934 16.3759 50.2567 19.7586C49.9045 20.3151 49.5445 20.8631 49.1613 21.3949Z" fill="black"/>
<path d="M49.1613 21.3949C48.386 22.5155 47.5476 23.5879 46.6633 24.6219C43.3815 28.4512 39.4208 31.6707 34.9654 34.1048C34.958 34.3867 34.958 34.6688 34.958 34.9434C34.958 39.2896 35.7172 43.6038 37.174 47.6694C37.9332 47.3404 38.6763 46.9879 39.4208 46.6193C49.1129 41.7881 57.0913 34.2854 62.5185 24.9038C62.9946 24.0739 63.4497 23.2354 63.88 22.3819C63.1986 20.2916 62.2824 18.2311 61.1397 16.2497C59.479 13.3766 57.4522 10.8546 55.151 8.71606C54.0542 12.6629 52.3934 16.3759 50.2567 19.7586C49.9045 20.3151 49.5445 20.8631 49.1613 21.3949Z" fill="#E53939" fill-opacity="0.4"/>
<path d="M45.9733 18.8347H45.9819C46.2725 18.4191 46.5459 18.0047 46.8117 17.5818C49.0499 14.0419 50.7193 10.1025 51.6653 5.88973C50.8045 5.28631 49.9204 4.72225 49.0128 4.21382C44.1259 1.45678 38.5837 -0.00758542 32.9698 -9.34659e-05C27.4572 -9.34659e-05 21.8827 1.39494 16.7547 4.35362C15.2906 5.19958 13.9279 6.1395 12.6518 7.16628C23.5978 7.52615 34.1593 10.894 43.3037 16.9547C44.2125 17.5581 45.1053 18.184 45.9733 18.8347Z" fill="black"/>
<path d="M45.9733 18.8347H45.9819C46.2725 18.4191 46.5459 18.0047 46.8117 17.5818C49.0499 14.0419 50.7193 10.1025 51.6653 5.88973C50.8045 5.28631 49.9204 4.72225 49.0128 4.21382C44.1259 1.45678 38.5837 -0.00758542 32.9698 -9.34659e-05C27.4572 -9.34659e-05 21.8827 1.39494 16.7547 4.35362C15.2906 5.19958 13.9279 6.1395 12.6518 7.16628C23.5978 7.52615 34.1593 10.894 43.3037 16.9547C44.2125 17.5581 45.1053 18.184 45.9733 18.8347Z" fill="#E53939" fill-opacity="0.4"/>
<path d="M14.5857 24.5514C15.941 24.669 17.2876 24.8644 18.6256 25.1228C23.6127 26.0862 28.4131 27.9577 32.7584 30.6676C36.8452 28.4748 40.4857 25.5459 43.4844 22.0692C42.6943 21.4741 41.8794 20.9028 41.0496 20.3536C32.0288 14.3697 21.5379 11.2058 10.7031 11.2058C9.93528 11.2058 9.15998 11.2232 8.39318 11.2616C6.99098 12.8905 5.76296 14.6369 4.72055 16.4847C3.13897 19.2961 1.98027 22.3202 1.28406 25.452C4.40025 24.716 7.56214 24.3635 10.703 24.3635C12.0026 24.3635 13.2934 24.4265 14.5857 24.5514Z" fill="black"/>
<path d="M14.5857 24.5514C15.941 24.669 17.2876 24.8644 18.6256 25.1228C23.6127 26.0862 28.4131 27.9577 32.7584 30.6676C36.8452 28.4748 40.4857 25.5459 43.4844 22.0692C42.6943 21.4741 41.8794 20.9028 41.0496 20.3536C32.0288 14.3697 21.5379 11.2058 10.7031 11.2058C9.93528 11.2058 9.15998 11.2232 8.39318 11.2616C6.99098 12.8905 5.76296 14.6369 4.72055 16.4847C3.13897 19.2961 1.98027 22.3202 1.28406 25.452C4.40025 24.716 7.56214 24.3635 10.703 24.3635C12.0026 24.3635 13.2934 24.4265 14.5857 24.5514Z" fill="#E53939" fill-opacity="0.4"/>
<path d="M13.7794 31.3096C13.8339 30.4018 13.913 29.4926 14.0057 28.5848C12.91 28.482 11.8058 28.4351 10.7028 28.4351C7.33566 28.4351 3.93751 28.8903 0.618574 29.8217C0.539482 30.7234 0.5 31.6224 0.5 32.5316C0.50749 38.0455 1.9022 43.6213 4.86135 48.7505C7.87623 53.9661 12.104 58.0218 16.9897 60.7862C18.1161 61.4294 19.2835 61.9933 20.4804 62.4856C15.9954 53.9811 13.662 44.576 13.662 34.9904C13.662 33.7611 13.7016 32.5316 13.7794 31.3096Z" fill="black"/>
<path d="M13.7794 31.3096C13.8339 30.4018 13.913 29.4926 14.0057 28.5848C12.91 28.482 11.8058 28.4351 10.7028 28.4351C7.33566 28.4351 3.93751 28.8903 0.618574 29.8217C0.539482 30.7234 0.5 31.6224 0.5 32.5316C0.50749 38.0455 1.9022 43.6213 4.86135 48.7505C7.87623 53.9661 12.104 58.0218 16.9897 60.7862C18.1161 61.4294 19.2835 61.9933 20.4804 62.4856C15.9954 53.9811 13.662 44.576 13.662 34.9904C13.662 33.7611 13.7016 32.5316 13.7794 31.3096Z" fill="#E53939" fill-opacity="0.4"/>
<path d="M34.9655 52.9396C34.3708 51.7101 33.8466 50.4572 33.3914 49.1808C31.7407 44.6304 30.8874 39.814 30.8874 34.9434C30.8874 34.7318 30.8874 34.5204 30.8949 34.3088C26.9563 31.7945 22.5877 30.0566 18.047 29.1648C17.9605 29.9551 17.8899 30.7528 17.843 31.5606C17.7724 32.7034 17.7329 33.8475 17.7329 34.9904C17.7329 44.6155 20.2543 54.0281 25.093 62.4238C25.4528 63.0495 25.8287 63.6681 26.2195 64.279H26.2282C28.4601 64.7576 30.738 65 33.033 65C36.1405 65 39.2565 64.5535 42.3096 63.6371C39.954 61.1547 37.9409 58.4213 36.29 55.4998C35.8188 54.6625 35.3723 53.809 34.9655 52.9396Z" fill="black"/>
<path d="M34.9655 52.9396C34.3708 51.7101 33.8466 50.4572 33.3914 49.1808C31.7407 44.6304 30.8874 39.814 30.8874 34.9434C30.8874 34.7318 30.8874 34.5204 30.8949 34.3088C26.9563 31.7945 22.5877 30.0566 18.047 29.1648C17.9605 29.9551 17.8899 30.7528 17.843 31.5606C17.7724 32.7034 17.7329 33.8475 17.7329 34.9904C17.7329 44.6155 20.2543 54.0281 25.093 62.4238C25.4528 63.0495 25.8287 63.6681 26.2195 64.279H26.2282C28.4601 64.7576 30.738 65 33.033 65C36.1405 65 39.2565 64.5535 42.3096 63.6371C39.954 61.1547 37.9409 58.4213 36.29 55.4998C35.8188 54.6625 35.3723 53.809 34.9655 52.9396Z" fill="#E53939" fill-opacity="0.4"/>
<path d="M65.2268 28.2941C59.4408 37.7399 51.1731 45.3206 41.2375 50.2606C40.4152 50.6687 39.5927 51.0596 38.7557 51.4207C39.092 52.1245 39.4519 52.8147 39.8352 53.495C41.6048 56.6279 43.8281 59.5171 46.4904 62.0701C47.4228 61.6396 48.3465 61.1708 49.2468 60.6464C54.4688 57.6298 58.5161 53.4022 61.2811 48.5154C64.0371 43.6286 65.5 38.0838 65.5 32.4685C65.4925 31.0745 65.4073 29.6819 65.2268 28.2941Z" fill="black"/>
<path d="M65.2268 28.2941C59.4408 37.7399 51.1731 45.3206 41.2375 50.2606C40.4152 50.6687 39.5927 51.0596 38.7557 51.4207C39.092 52.1245 39.4519 52.8147 39.8352 53.495C41.6048 56.6279 43.8281 59.5171 46.4904 62.0701C47.4228 61.6396 48.3465 61.1708 49.2468 60.6464C54.4688 57.6298 58.5161 53.4022 61.2811 48.5154C64.0371 43.6286 65.5 38.0838 65.5 32.4685C65.4925 31.0745 65.4073 29.6819 65.2268 28.2941Z" fill="#E53939" fill-opacity="0.4"/>
</svg>